<svg xmlns="http://www.w3.org/2000/svg" width="256" height="256" viewBox="0 0 100 100"><rect width="100" height="100" rx="20" fill="#3959e7"></rect><path fill="#fff" d="M8.90 65.24L8.90 65.24L14.18 57.62Q18.50 60.68 21.62 61.94Q24.74 63.20 27.80 63.20L27.80 63.20Q31.10 63.20 33.02 61.97Q34.94 60.74 34.94 58.82L34.94 58.82Q34.94 56.96 33.71 56Q32.48 55.04 29.42 54.44L29.42 54.44L20.48 52.88Q15.50 51.92 12.83 48.98Q10.16 46.04 10.16 41.66L10.16 41.66Q10.16 35.60 14.60 32Q19.04 28.40 26.84 28.40L26.84 28.40Q31.70 28.40 36.26 29.87Q40.82 31.34 44.06 33.92L44.06 33.92L38.84 41.42Q35.78 39.08 32.69 37.94Q29.60 36.80 26.30 36.80L26.30 36.80Q23.24 36.80 21.56 37.94Q19.88 39.08 19.88 40.76L19.88 40.76Q19.88 42.32 20.99 43.22Q22.10 44.12 24.62 44.54L24.62 44.54L33.02 45.98Q38.90 47 41.96 50.03Q45.02 53.06 45.02 57.86L45.02 57.86Q45.02 63.92 40.16 67.76Q35.30 71.60 27.08 71.60L27.08 71.60Q22.10 71.60 17.57 69.95Q13.04 68.30 8.90 65.24ZM62.06 71L51.74 71L51.74 29L62.06 29L62.06 47.24L77.72 29L90.02 29L71.66 48.74L91.10 71L77.60 71L62.06 51.92L62.06 71Z"></path></svg>